<?xml version="1.0" standalone="no"?>
<!DOCTYPE svg PUBLIC "-//W3C//DTD SVG 20010904//EN"
 "http://www.w3.org/TR/2001/REC-SVG-20010904/DTD/svg10.dtd">
<svg version="1.0" xmlns="http://www.w3.org/2000/svg"
 width="280.000000pt" height="280.000000pt" viewBox="0 0 280.000000 280.000000"
 preserveAspectRatio="xMidYMid meet">
<metadata>
Created by potrace 1.11, written by Peter Selinger 2001-2013
</metadata>
<g transform="translate(0.000000,280.000000) scale(0.100000,-0.100000)"
fill="#000000" stroke="none">
<path d="M1359 2445 c-2 -1 -53 -6 -113 -10 -60 -4 -116 -8 -125 -10 -9 -1
-41 -6 -71 -10 -30 -4 -64 -9 -75 -11 -11 -3 -36 -7 -55 -10 -167 -26 -358
-107 -452 -192 -77 -70 -131 -179 -142 -284 -2 -24 -5 -45 -6 -48 -1 -3 -2 -8
-1 -12 5 -35 13 -128 13 -145 0 -13 4 -20 9 -17 5 3 9 -2 9 -10 0 -8 9 -31 21
-50 12 -20 18 -36 15 -36 -4 0 9 -14 29 -31 19 -17 35 -36 35 -43 0 -6 -7 -2
-15 8 -16 21 -21 11 -7 -12 10 -16 45 -4 35 12 -4 6 1 4 12 -4 10 -8 21 -14
24 -12 3 1 6 -7 6 -18 0 -10 7 -25 15 -32 12 -11 12 -11 2 4 -15 18 -7 25 26
22 18 -1 20 1 11 13 -13 14 -9 23 13 28 41 10 57 18 51 28 -3 6 -1 7 5 3 6 -3
16 2 22 13 6 11 16 18 23 15 16 -6 15 82 -1 111 -26 46 -42 101 -42 147 0 36
3 47 13 42 9 -5 9 -4 0 6 -22 24 45 132 77 122 9 -3 10 0 4 9 -5 9 3 7 21 -5
l30 -19 -18 20 c-20 23 -5 45 16 24 9 -9 7 -11 -8 -6 -16 6 -17 5 -5 -4 21
-15 23 -14 39 12 13 20 13 21 -2 8 -11 -9 -17 -10 -17 -2 0 6 5 11 10 11 20 0
25 2 38 12 9 8 16 8 23 1 8 -8 7 -11 -2 -10 -8 1 -15 -2 -16 -7 -1 -5 -7 -13
-15 -18 -10 -8 -10 -9 2 -5 8 2 14 10 12 16 -3 17 9 13 24 -6 13 -17 14 -17 7
1 -5 14 -3 17 6 11 10 -6 11 -3 2 13 -9 17 -8 20 7 18 9 -2 20 2 24 8 5 7 8 7
8 -3 0 -11 3 -11 15 -1 19 16 69 5 58 -13 -4 -8 -1 -7 10 2 18 14 23 26 8 16
-5 -3 -12 -1 -16 4 -3 6 3 8 15 6 11 -2 22 0 25 5 8 12 53 6 68 -10 10 -10 7
-11 -16 -6 -20 5 -27 3 -22 -4 7 -11 70 -8 82 4 3 3 15 0 27 -6 11 -6 18 -7
14 -3 -4 5 -2 15 5 23 10 13 9 14 -3 6 -19 -12 -80 -13 -80 -2 0 5 15 8 33 8
17 0 50 0 72 1 64 2 66 1 55 -23 -8 -20 -19 -75 -25 -118 -1 -8 -5 -28 -9 -45
-14 -62 -24 -112 -31 -154 -2 -14 -9 -47 -14 -75 -17 -84 -48 -254 -57 -311
-2 -16 -6 -41 -9 -55 -7 -40 -15 -85 -20 -126 -8 -63 -13 -97 -19 -129 -2 -16
-8 -50 -11 -75 -8 -51 -13 -75 -15 -75 -1 0 -3 -13 -5 -30 -2 -16 -6 -46 -9
-65 -3 -19 -7 -47 -8 -62 -1 -16 -5 -28 -8 -28 -3 0 -5 -15 -5 -32 0 -18 -3
-53 -8 -78 -4 -25 -8 -55 -7 -68 0 -15 -4 -21 -12 -16 -7 5 -8 3 -3 -6 9 -14
8 -131 -1 -165 -4 -16 -3 -17 5 -6 8 12 11 10 16 -10 6 -24 63 -69 88 -69 8 0
17 -3 21 -7 11 -11 36 -12 36 -2 0 6 5 7 11 3 6 -3 7 -9 3 -13 -5 -3 -10 -13
-12 -21 -2 -8 0 -12 4 -8 4 4 14 2 23 -5 14 -11 14 -10 2 6 -17 21 -7 34 33
41 16 3 31 8 34 10 3 3 12 0 20 -7 13 -9 14 -9 8 1 -5 8 -1 12 10 12 10 0 15
3 11 6 -3 3 9 20 26 38 18 17 32 41 32 51 0 11 3 25 7 30 4 6 5 20 4 30 -2 11
0 28 5 37 6 11 5 18 -4 21 -7 3 -8 6 -1 6 7 1 9 12 6 27 -4 20 -2 25 8 19 9
-6 10 -3 1 14 -7 12 -9 27 -5 33 4 6 9 30 10 51 2 22 9 44 16 49 10 6 10 8 0
8 -8 0 -10 9 -6 28 3 15 6 42 7 60 1 17 4 32 7 32 3 0 6 12 6 28 2 35 14 143
19 168 2 10 4 27 4 37 1 10 5 16 9 13 5 -3 9 1 9 9 0 8 -4 12 -9 9 -4 -3 -4 5
1 18 4 13 7 31 6 41 -2 9 0 17 5 17 5 0 7 8 6 17 -2 9 1 35 6 57 5 23 11 61
13 86 3 25 8 52 12 60 3 8 5 23 4 34 -2 10 1 16 6 13 5 -3 7 10 5 30 -3 26 -1
34 8 28 9 -6 9 -3 0 15 -7 12 -8 20 -3 17 5 -4 10 10 10 29 0 20 6 40 14 45
11 7 11 9 1 9 -8 0 -10 5 -6 12 4 7 9 26 11 43 1 16 6 41 10 55 3 14 5 31 4
39 -1 7 1 11 6 8 7 -4 10 17 13 96 1 9 5 17 10 17 4 0 6 9 3 20 -5 18 5 25 30
21 5 -1 6 3 2 8 -3 6 -13 7 -22 4 -11 -4 -14 -3 -9 6 5 7 10 27 13 44 3 18 6
36 6 42 3 18 47 46 59 39 9 -6 9 -3 -1 9 -12 15 -15 15 -33 -6 -18 -20 -19
-20 -13 -2 4 11 8 25 8 31 1 15 183 12 199 -3 15 -16 28 -17 28 -2 0 5 -4 7
-10 4 -5 -3 -10 -1 -10 4 0 17 14 13 33 -9 19 -22 48 -17 41 8 -4 14 -3 14 8
-1 26 -37 48 -60 48 -50 0 6 -7 16 -15 23 -25 21 -17 27 40 27 30 0 55 -4 55
-8 0 -4 -20 -6 -45 -4 -38 2 -43 0 -34 -12 8 -9 15 -11 22 -4 7 7 15 5 24 -7
12 -16 13 -16 7 2 -6 16 -4 17 12 8 21 -11 60 8 46 23 -4 5 0 4 8 -1 21 -12
60 -13 60 -1 0 6 5 6 13 0 6 -5 19 -9 27 -8 8 1 23 -2 32 -7 9 -4 19 -4 22 1
7 10 46 3 46 -9 0 -4 -15 -7 -34 -5 -27 1 -33 -1 -28 -14 4 -10 7 -11 10 -2 3
9 10 8 28 -4 22 -14 28 -12 25 8 0 4 4 7 9 7 6 0 10 -6 10 -12 0 -8 3 -9 8 -3
10 14 32 17 32 5 0 -6 5 -10 12 -10 9 0 9 3 0 12 -20 20 -14 27 18 23 17 -2
30 1 30 7 0 5 7 8 15 5 8 -4 17 -2 21 4 3 6 13 8 21 5 8 -3 11 -1 8 4 -7 11
19 53 27 44 4 -3 5 25 5 63 -2 48 -8 77 -20 97 -18 27 -85 64 -130 71 -52 9
-105 16 -147 21 -25 3 -65 7 -90 10 -51 6 -756 15 -761 9z m538 -320 c0 -8 -4
-12 -9 -9 -5 3 -6 10 -3 15 9 13 12 11 12 -6z m164 -18 c-10 -9 -11 -8 -5 6 3
10 9 15 12 12 3 -3 0 -11 -7 -18z m273 -6 c4 -5 -1 -8 -9 -7 -21 3 -31 16 -12
16 9 0 18 -4 21 -9z m-1789 -593 c5 -4 0 -6 -12 -6 -13 1 -19 7 -16 15 3 8 8
10 12 6 3 -4 10 -11 16 -15z"/>
<path d="M1200 2116 c-6 -6 -10 -15 -10 -20 0 -6 5 -4 10 6 6 10 18 14 30 11
11 -3 20 -1 20 4 0 12 -38 11 -50 -1z"/>
<path d="M1698 2113 c-6 -7 -8 -16 -5 -20 4 -3 9 1 13 10 3 10 14 14 29 11 13
-2 26 0 29 4 8 14 -54 9 -66 -5z"/>
<path d="M1780 2115 c-7 -9 -8 -15 -2 -15 5 0 12 7 16 15 3 8 4 15 2 15 -2 0
-9 -7 -16 -15z"/>
<path d="M1808 2113 c-4 -13 0 -19 13 -19 14 0 16 3 6 16 -6 8 -12 16 -13 18
-1 1 -4 -5 -6 -15z"/>
<path d="M1027 2114 c-8 -8 3 -34 15 -34 6 0 6 6 -1 14 -9 11 -9 15 1 19 7 3
8 6 2 6 -6 1 -13 -2 -17 -5z"/>
<path d="M2456 2107 c3 -10 9 -15 12 -12 3 3 0 11 -7 18 -10 9 -11 8 -5 -6z"/>
<path d="M2097 2098 c2 -5 9 -5 15 -2 8 5 9 1 5 -12 -6 -17 -6 -17 5 -3 15 18
47 17 59 -3 7 -11 9 -10 9 1 0 11 3 11 18 0 15 -12 16 -12 5 2 -7 9 -11 18 -9
20 3 2 -22 4 -54 4 -32 0 -56 -3 -53 -7z"/>
<path d="M2420 2100 c0 -6 7 -10 15 -10 8 0 15 2 15 4 0 2 -7 6 -15 10 -8 3
-15 1 -15 -4z"/>
<path d="M925 2089 c-4 -6 -4 -13 -1 -16 3 -4 6 -1 6 5 0 7 4 12 10 12 5 0 8
-6 6 -12 -1 -7 -1 -10 1 -5 3 4 9 5 14 1 5 -3 9 -1 9 4 0 6 -7 13 -16 16 -21
8 -22 8 -29 -5z"/>
<path d="M2378 2093 c6 -2 10 -9 7 -14 -4 -5 1 -6 10 -2 13 5 14 7 3 14 -7 5
-17 8 -23 8 -5 0 -4 -3 3 -6z"/>
<path d="M896 2073 c-6 -14 -5 -15 5 -6 7 7 10 15 7 18 -3 3 -9 -2 -12 -12z"/>
<path d="M1010 2081 c0 -6 4 -13 10 -16 6 -3 7 1 4 9 -7 18 -14 21 -14 7z"/>
<path d="M1130 2086 c0 -2 7 -7 16 -10 8 -3 12 -2 9 4 -6 10 -25 14 -25 6z"/>
<path d="M2075 2080 c3 -5 8 -10 11 -10 2 0 4 5 4 10 0 6 -5 10 -11 10 -5 0
-7 -4 -4 -10z"/>
<path d="M686 1989 c-14 -11 -26 -26 -25 -32 0 -7 3 -7 6 2 5 11 7 11 15 0 7
-11 8 -10 6 3 -2 9 6 24 17 32 11 9 17 16 14 16 -4 0 -18 -9 -33 -21z"/>
<path d="M735 2000 c3 -5 8 -10 11 -10 2 0 4 5 4 10 0 6 -5 10 -11 10 -5 0 -7
-4 -4 -10z"/>
<path d="M355 1620 c3 -5 8 -10 11 -10 2 0 4 5 4 10 0 6 -5 10 -11 10 -5 0 -7
-4 -4 -10z"/>
<path d="M646 1561 c-14 -15 -15 -21 -4 -27 7 -4 10 -3 5 1 -4 5 0 17 10 27 9
10 14 18 11 18 -3 0 -13 -9 -22 -19z"/>
<path d="M387 1559 c7 -7 15 -10 18 -7 3 3 -2 9 -12 12 -14 6 -15 5 -6 -5z"/>
<path d="M599 1533 c-1 -4 -1 -11 0 -15 2 -12 -17 -10 -22 2 -3 6 -4 5 -3 -2
2 -7 9 -13 17 -13 8 0 13 6 12 13 -3 14 13 16 20 2 3 -6 4 -5 3 2 -3 14 -25
24 -27 11z"/>
<path d="M465 1511 c-3 -5 -1 -12 5 -16 6 -4 7 -12 4 -18 -4 -7 -1 -6 7 2 11
10 11 15 1 18 -6 3 -10 9 -6 14 3 5 3 9 0 9 -3 0 -7 -4 -11 -9z"/>
<path d="M1315 329 c-4 -12 -3 -25 2 -29 4 -5 8 4 9 21 1 34 -2 37 -11 8z"/>
<path d="M1023 324 c0 -8 3 -12 5 -9 3 3 11 0 19 -6 10 -9 11 -15 1 -28 -10
-13 -10 -14 2 -3 16 14 34 16 26 4 -3 -5 1 -9 9 -9 8 0 11 5 8 10 -4 6 1 8 11
4 11 -4 15 -3 11 4 -4 5 -12 8 -18 6 -7 -3 -26 6 -43 19 -22 16 -31 19 -31 8z"/>
<path d="M1248 304 c-5 -5 -28 -11 -50 -13 -5 -1 -8 -5 -8 -10 0 -9 66 -8 77
2 3 4 1 7 -6 7 -7 0 -9 5 -6 10 7 11 2 14 -7 4z"/>
<path d="M1131 274 c0 -11 3 -14 6 -6 3 7 2 16 -1 19 -3 4 -6 -2 -5 -13z"/>
</g>
</svg>
